<svg xmlns="http://www.w3.org/2000/svg" width="259" height="70" viewBox="0 0 259 70">
  <g id="Group_17072" data-name="Group 17072" transform="translate(-141 -20)">
    <g id="Group_16925" data-name="Group 16925">
      <g id="Component_1_119" data-name="Component 1 – 119" transform="translate(141 20)">
        <g id="Groupe_6_5_" transform="translate(71.41 1.369)">
          <g id="Groupe_5_5_" transform="translate(0 0)">
            <path id="Tracé_3_5_" d="M450.166,127.468a11.81,11.81,0,0,0-4.774-4.718,16.127,16.127,0,0,0-14.521.028,12.459,12.459,0,0,0-4.944,5.029,17.475,17.475,0,0,0,0,15.454,12.459,12.459,0,0,0,4.944,5.029,14.753,14.753,0,0,0,7.261,1.752,15.6,15.6,0,0,0,6.413-1.3,12.247,12.247,0,0,0,4.661-3.616,11.778,11.778,0,0,0,2.147-4.436h-6.3a6.01,6.01,0,0,1-2.26,3.079,8.169,8.169,0,0,1-4.944,1.5,7.545,7.545,0,0,1-7.882-7.232h21.867V134.39h0v-.2A13.641,13.641,0,0,0,450.166,127.468Zm-20.228,5.566a8.156,8.156,0,0,1,2.43-5.227,8.308,8.308,0,0,1,5.735-2.119,8.846,8.846,0,0,1,3.984.9,6.651,6.651,0,0,1,2.882,2.769,7.849,7.849,0,0,1,.932,3.644Z" transform="translate(-393.776 -110.366)"/>
            <path id="Tracé_4_5_" d="M874.566,127.468a11.808,11.808,0,0,0-4.775-4.718,16.126,16.126,0,0,0-14.521.028,12.46,12.46,0,0,0-4.944,5.029,17.476,17.476,0,0,0,0,15.454,12.459,12.459,0,0,0,4.944,5.029,14.752,14.752,0,0,0,7.26,1.752,15.6,15.6,0,0,0,6.413-1.3,12.25,12.25,0,0,0,4.662-3.616,11.781,11.781,0,0,0,2.147-4.436h-6.3a6.009,6.009,0,0,1-2.26,3.079,8.169,8.169,0,0,1-4.944,1.5,7.545,7.545,0,0,1-7.882-7.232h21.867V134.39h0v-.2A13.34,13.34,0,0,0,874.566,127.468Zm-20.2,5.566a8.156,8.156,0,0,1,2.43-5.227,8.307,8.307,0,0,1,5.735-2.119,8.845,8.845,0,0,1,3.983.9,6.652,6.652,0,0,1,2.882,2.769,7.85,7.85,0,0,1,.932,3.644Z" transform="translate(-698.276 -110.366)"/>
            <path id="Tracé_5_5_" d="M548.472,135.084a35.741,35.741,0,0,0-5.142-1.5c-1.271-.283-2.486-.622-3.729-1.017a6.222,6.222,0,0,1-2.175-1.271,2.836,2.836,0,0,1-.876-2.147,3.591,3.591,0,0,1,1.215-2.853,4.937,4.937,0,0,1,3.418-1.045,6.262,6.262,0,0,1,4.294,1.413,5.993,5.993,0,0,1,1.977,3.729h5.537a10.745,10.745,0,0,0-3.673-6.809,11.972,11.972,0,0,0-7.967-2.543,11.216,11.216,0,0,0-7.458,2.232,7.148,7.148,0,0,0-2.684,5.82,6.581,6.581,0,0,0,1.356,4.379,7.978,7.978,0,0,0,3.277,2.345,38.808,38.808,0,0,0,5,1.441,36.009,36.009,0,0,1,3.814.989,6.856,6.856,0,0,1,2.317,1.356,3.194,3.194,0,0,1,.932,2.373,3.621,3.621,0,0,1-1.215,2.8,4.611,4.611,0,0,1-3.305,1.1,7.253,7.253,0,0,1-4.718-1.441,5.321,5.321,0,0,1-2.063-3.757H530.9a10.155,10.155,0,0,0,3.927,6.893,13.807,13.807,0,0,0,8.56,2.458,11.176,11.176,0,0,0,7.261-2.2,7.083,7.083,0,0,0,2.684-5.763,6.927,6.927,0,0,0-1.413-4.549A8.64,8.64,0,0,0,548.472,135.084Z" transform="translate(-470.385 -110.353)"/>
            <path id="Tracé_6_5_" d="M623.677,126.625a4.839,4.839,0,0,1-.9-3.334V109.335h6.837v-5h-6.837V97.3h-5.9v7.035H612.8v5h4.068v13.872c0,3.39.791,5.82,2.345,7.261a9.608,9.608,0,0,0,6.865,2.175h3.588v-5.085h-2.825A4.427,4.427,0,0,1,623.677,126.625Z" transform="translate(-529.147 -93.334)"/>
            <path id="Tracé_7_5_" d="M686.665,85.59a9.689,9.689,0,0,0-3.023,7.769v.932H679.8V99.32h3.842v23.251h5.9V99.32h6.215V94.291h-6.215v-.452a5.585,5.585,0,0,1,1.384-4.294,6.8,6.8,0,0,1,4.831-1.1V83.3C691.694,83.076,688.671,83.838,686.665,85.59Z" transform="translate(-577.219 -83.263)"/>
            <rect id="Rectangle_1_5_" width="5.848" height="37.998" transform="translate(181.742 1.31)"/>
            <path id="Tracé_8_6_" d="M330.685,120.748a10.217,10.217,0,0,0-8.278,3.39V120.8H316.7v28.647h5.707V134.026c0-5.9,3.7-7.571,8.278-7.571a7.965,7.965,0,0,1,8.278,7.571v15.425h5.707V134.026A13.652,13.652,0,0,0,330.685,120.748Z" transform="translate(-316.7 -110.143)"/>
            <path id="Tracé_9_5_" d="M769.533,139.377a6.443,6.443,0,0,1-12.826,0V122.2H751v17.177A11.85,11.85,0,0,0,763.12,150.9a8.526,8.526,0,0,0,6.413-2.882v2.486h5.707v-28.28h-5.707Z" transform="translate(-628.304 -111.2)"/>
          </g>
        </g>
        <g id="Groupe_4_4_">
          <g id="Groupe_3_4_" transform="translate(0 0)">
            <g id="Groupe_1_4_" transform="translate(17.151 4.589)">
              <path id="Tracé_1_4_" d="M169.539,134.871a13.474,13.474,0,0,1-9.549-4.012l-10.736-10.736A.876.876,0,0,1,149,119.5v-6.639a.879.879,0,0,1,1.5-.622l14.069,14.069a7.162,7.162,0,0,0,12.2-5.057V91.9h0a6.438,6.438,0,0,1,6.441,6.441h0v22.6a13.723,13.723,0,0,1-13.5,13.928Z" transform="translate(-149 -91.9)"/>
            </g>
            <g id="Groupe_2_4_">
              <path id="Tracé_2_4_" d="M112.3,78.428a13.474,13.474,0,0,1,9.549,4.012l10.736,10.736a.877.877,0,0,1,.254.622v6.639a.879.879,0,0,1-1.5.622L117.27,86.988a7.162,7.162,0,0,0-12.233,5.057v29.325h0a6.439,6.439,0,0,1-6.441-6.441h0v-22.6A13.723,13.723,0,0,1,112.1,78.4a.48.48,0,0,0,.2.028Z" transform="translate(-98.594 -78.4)"/>
            </g>
          </g>
        </g>
      </g>
      <text id="Democratizing_Home_Ownership" data-name="Democratizing Home Ownership" transform="translate(141 85)" font-size="18" font-family="Roboto-Regular, Roboto"><tspan x="0" y="0">Democratizing Home Ownership</tspan></text>
    </g>
  </g>
</svg>
